<svg width="64" height="64" viewBox="0 0 64 64" xmlns="http://www.w3.org/2000/svg" role="img" aria-label="WebGraha">
  <defs>
    <radialGradient id="wg-sphere-fav" cx="34%" cy="28%" r="84%">
      <stop offset="0%" stop-color="#9cc4ed"/>
      <stop offset="20%" stop-color="#5b95d1"/>
      <stop offset="52%" stop-color="#234a82"/>
      <stop offset="80%" stop-color="#10254a"/>
      <stop offset="100%" stop-color="#070f24"/>
    </radialGradient>
    <clipPath id="wg-sphere-fav-clip">
      <circle cx="32" cy="32" r="29"/>
    </clipPath>
    <filter id="wg-soft-fav" x="-50%" y="-50%" width="200%" height="200%">
      <feGaussianBlur stdDeviation="1.6"/>
    </filter>
  </defs>

  <circle cx="32" cy="32" r="29" fill="url(#wg-sphere-fav)"/>

  <g clip-path="url(#wg-sphere-fav-clip)">
    <path d="M11 21c4.6-7.6 14.4-10.5 21-6.3 3.7 2.4 5 6.6 4 10.4-.6 2.4-2.8 4-2.4 6.5.4 2.4 3.2 3.3 2.7 5.7-.6 2.7-4.6 3.8-8 4-5.2.5-11.2-1.4-14.4-5.6-2.8-3.7-2.9-8.6-2.9-14.7z" fill="#3d6650"/>
    <path d="M16 23.5c2.7-3.7 7-5.6 10.4-4.2 2.4 1 2.6 3.3.9 5-2.3 2.3-5.9 1.8-8.5 3.5-1.6 1.1-3.9.4-2.8-1.7.4-.8.9-1.7 0-2.6z" fill="#5f4b36" opacity="0.85"/>
    <path d="M27 41c7.2-4 16.8-2.8 21 3 3 4.2-1 9-7.5 9.5-7 .6-15-1.5-18.5-6.5-1.7-2.4-1-4.5 5-6z" fill="#5f4b36"/>
    <path d="M30.5 43.5c3-1.5 7-1 9 1.3 1.6 1.8.7 4-1.7 4.8-2.7.9-6 0-7.7-1.8-1.1-1.2-.6-3.4.4-4.3z" fill="#3d6650" opacity="0.9"/>
    <ellipse cx="46" cy="19" rx="5.6" ry="3.7" fill="#3d6650"/>
    <ellipse cx="20" cy="48" rx="3" ry="2" fill="#5f4b36" opacity="0.85"/>
    <ellipse cx="50" cy="33" rx="2.4" ry="1.6" fill="#3d6650" opacity="0.85"/>
    <ellipse cx="32" cy="10.5" rx="18" ry="5.8" fill="#f4f8fb" opacity="0.55"/>
    <ellipse cx="32" cy="10.5" rx="12" ry="3.6" fill="#ffffff" opacity="0.4"/>
    <ellipse cx="32" cy="53.5" rx="18" ry="5.8" fill="#f4f8fb" opacity="0.45"/>
    <ellipse cx="32" cy="53.5" rx="12" ry="3.6" fill="#ffffff" opacity="0.3"/>
    <ellipse cx="24" cy="27" rx="9" ry="2.4" fill="#ffffff" opacity="0.15" transform="rotate(-10 24 27)"/>
    <ellipse cx="38" cy="42" rx="10" ry="2.6" fill="#ffffff" opacity="0.13" transform="rotate(8 38 42)"/>
  </g>

  <ellipse cx="24" cy="22" rx="8" ry="4.6" fill="#ffffff" opacity="0.22" filter="url(#wg-soft-fav)"/>

  <circle cx="32" cy="32" r="29" fill="none" stroke="#bcd6ea" stroke-opacity="0.42" stroke-width="2"/>
</svg>
