<?xml version="1.0" encoding="UTF-8"?>
<svg xmlns="http://www.w3.org/2000/svg" xmlns:xlink="http://www.w3.org/1999/xlink" width="100" height="100" viewBox="0 0 100 100">
<defs>
  <style type="text/css">
   <![CDATA[
    .fil1 {fill:white}
    .fil0 {fill:white;fill-rule:nonzero}
   ]]>
  </style>
 </defs>
<rect width="100" height="100" fill="#0A1128"/>
<g transform="translate(10.0000,10.0000) scale(0.875561)">
<g transform="translate(5.855,0)">
<g id="Layer_x0020_1">
  <metadata id="CorelCorpID_0Corel-Layer"/>
  <g id="_2377469947504">
   <path class="fil0" d="M55.86 51.5l0 3.65c-1.97,-2.55 -5.79,-4.34 -9.55,-4.34 -7.41,0 -13.14,5.85 -13.14,14.18 0,8.33 5.73,14.24 13.14,14.24 3.7,0 7.18,-1.56 9.55,-4.28l0 2.84c0,3.18 -3.3,5.44 -8.22,5.44 -3.41,0 -6.89,-1.1 -8.74,-2.66l-3.3 6.83c3.07,2.32 8.16,3.99 13.54,3.99 9.72,0 16.55,-5.44 16.55,-13.14l0 -26.74 -9.84 0zm-6.31 19.56c-3.65,0 -6.31,-2.55 -6.31,-6.08 0,-3.53 2.66,-6.02 6.31,-6.02 3.7,0 6.31,2.49 6.31,6.02 0,3.53 -2.6,6.08 -6.31,6.08z"/>
   <path class="fil1" d="M42.39 27.1c-0.24,0.9 -0.57,1.96 -2.03,1.74 -1.01,-0.15 -1.4,-1.16 -1.91,-1.92 -0.51,-0.75 -0.95,-1.49 -1.46,-2.28 -0.52,-0.81 -1,-1.53 -1.5,-2.33 -1.4,-2.23 -3,-4.91 -6.93,-4.5 -2.42,0.25 -3.63,1.86 -4.73,2.95l-7.63 7.61c-1.41,1.23 -3.65,1.1 -4.25,-1.95 -0.83,-4.25 -1.66,-8.48 -2.5,-12.73 -0.75,-3.81 -0.32,-3.6 -4.06,-3.6 -1.27,0 -2.56,-0.02 -3.84,-0 -1.35,0.02 -1.71,0.82 -1.51,2.19 1.32,8.87 2.53,17.85 3.77,26.75 0.39,2.8 0.63,3.89 2.27,5.4 1.29,1.19 3.26,2.1 5.68,1.83 2.51,-0.28 3.71,-1.62 4.83,-2.8 1.18,-1.24 2.53,-2.6 3.72,-3.85l3.77 -3.9c0.32,-0.34 0.66,-0.6 0.98,-0.94l1.86 -1.97c0.28,-0.3 0.57,-0.54 0.93,-0.9 0.66,-0.65 1.65,-1.46 2.55,-0.56l7.55 11.51c4.06,6.26 12.32,3.61 13.23,-2.5 0.32,-2.13 0.36,-4.92 0.51,-7.13 0.17,-2.4 0.33,-4.77 0.49,-7.17 0.09,-1.29 0.31,-2.26 -0.47,-3.17 -0.73,-0.86 -1.56,-0.83 -2.98,-0.83 -2.66,0 -4.83,-0.55 -5.54,2.02 -0.28,1.02 -0.53,2.02 -0.8,3.03z"/>
   <path class="fil1" d="M31.15 0.99c31.88,5.89 49.84,35.76 48.44,64.1 -0.27,5.53 -1.2,10.86 -2.67,15.88 0.69,-3.44 1.13,-6.99 1.3,-10.63 1.39,-29.91 -18.41,-61.52 -54.24,-67.61 -6.45,-1.1 -13.02,-1.29 -19.57,-0.59 8.77,-2.38 17.83,-2.8 26.74,-1.15z"/>
  </g>
 </g>
</g>
</g>
</svg>
