<?xml version="1.0" encoding="UTF-8"?>
<svg xmlns="http://www.w3.org/2000/svg" xml:space="preserve" width="800" height="800"
 viewBox="0 0 800 800" xmlns:xlink="http://www.w3.org/1999/xlink">
 <defs>
  <radialGradient id="spaceBg" cx="50%" cy="32%" r="80%">
   <stop offset="0%" stop-color="#181c3a"/>
   <stop offset="45%" stop-color="#0b0e22"/>
   <stop offset="100%" stop-color="#020208"/>
  </radialGradient>
  <radialGradient id="nebulaPurple" cx="24%" cy="18%" r="42%">
   <stop offset="0%" stop-color="#5a3d99" stop-opacity="0.32"/>
   <stop offset="100%" stop-color="#5a3d99" stop-opacity="0"/>
  </radialGradient>
  <radialGradient id="nebulaBlue" cx="78%" cy="72%" r="46%">
   <stop offset="0%" stop-color="#1c5a86" stop-opacity="0.28"/>
   <stop offset="100%" stop-color="#1c5a86" stop-opacity="0"/>
  </radialGradient>
  <style type="text/css">
   <![CDATA[
    @font-face {
      font-family: 'Metropolis';
      src: url('font/metropolis-extra-bold.ttf') format('truetype');
      font-weight: 800;
      font-style: normal;
    }
    .fil1 {fill:white}
    .fil0 {fill:white;fill-rule:nonzero}
    .tagline {
      font-family: 'Metropolis', 'Poppins', 'Montserrat', Arial, sans-serif;
      font-weight: 800;
      fill: #dfe6ff;
    }
   ]]>
  </style>
 </defs>

 <rect width="800" height="800" fill="url(#spaceBg)"/>
 <rect width="800" height="800" fill="url(#nebulaPurple)"/>
 <rect width="800" height="800" fill="url(#nebulaBlue)"/>

 <g>
    <circle cx="511.5" cy="20.0" r="1.2" fill="#ffffff" opacity="0.34"/>
    <circle cx="111.6" cy="82.0" r="0.8" fill="#ffffff" opacity="0.46"/>
    <circle cx="25.4" cy="75.0" r="1.0" fill="#ffffff" opacity="0.43"/>
    <circle cx="21.2" cy="159.1" r="1.8" fill="#e8f0ff" opacity="0.68"/>
    <circle cx="471.4" cy="647.5" r="0.6" fill="#ffffff" opacity="0.52"/>
    <circle cx="127.7" cy="338.1" r="1.2" fill="#ffffff" opacity="0.3"/>
    <circle cx="765.8" cy="269.3" r="0.8" fill="#ffffff" opacity="0.38"/>
    <circle cx="34.8" cy="367.5" r="0.8" fill="#ffffff" opacity="0.59"/>
    <circle cx="494.8" cy="689.4" r="1.0" fill="#ffffff" opacity="0.5"/>
    <circle cx="36.7" cy="182.3" r="1.2" fill="#ffffff" opacity="0.59"/>
    <circle cx="684.3" cy="693.2" r="1.8" fill="#e8f0ff" opacity="0.7"/>
    <circle cx="167.6" cy="213.6" r="0.8" fill="#ffffff" opacity="0.46"/>
    <circle cx="136.9" cy="583.3" r="1.0" fill="#ffffff" opacity="0.41"/>
    <circle cx="216.0" cy="740.3" r="1.0" fill="#ffffff" opacity="0.49"/>
    <circle cx="674.3" cy="620.8" r="1.0" fill="#ffffff" opacity="0.54"/>
    <circle cx="730.5" cy="453.7" r="1.4" fill="#ffffff" opacity="0.67"/>
    <circle cx="399.4" cy="707.7" r="2.2" fill="#e8f0ff" opacity="0.65"/>
    <circle cx="111.7" cy="596.0" r="1.2" fill="#ffffff" opacity="0.51"/>
    <circle cx="797.9" cy="110.7" r="2.2" fill="#e8f0ff" opacity="0.63"/>
    <circle cx="37.7" cy="87.7" r="1.0" fill="#ffffff" opacity="0.53"/>
    <circle cx="337.7" cy="50.8" r="1.8" fill="#e8f0ff" opacity="0.81"/>
    <circle cx="374.4" cy="201.1" r="0.6" fill="#ffffff" opacity="0.49"/>
    <circle cx="91.6" cy="707.8" r="1.2" fill="#ffffff" opacity="0.52"/>
    <circle cx="2.6" cy="577.7" r="1.2" fill="#ffffff" opacity="0.59"/>
    <circle cx="500.2" cy="673.3" r="1.0" fill="#ffffff" opacity="0.3"/>
    <circle cx="424.3" cy="0.5" r="1.4" fill="#ffffff" opacity="0.77"/>
    <circle cx="89.5" cy="290.4" r="1.2" fill="#ffffff" opacity="0.33"/>
    <circle cx="585.5" cy="652.8" r="1.0" fill="#ffffff" opacity="0.29"/>
    <circle cx="697.9" cy="338.5" r="1.0" fill="#ffffff" opacity="0.58"/>
    <circle cx="604.2" cy="551.9" r="1.2" fill="#ffffff" opacity="0.39"/>
    <circle cx="537.3" cy="298.7" r="2.2" fill="#e8f0ff" opacity="0.64"/>
    <circle cx="184.1" cy="176.2" r="0.8" fill="#ffffff" opacity="0.5"/>
    <circle cx="47.1" cy="53.9" r="0.6" fill="#ffffff" opacity="0.55"/>
    <circle cx="56.7" cy="190.4" r="2.2" fill="#e8f0ff" opacity="0.67"/>
    <circle cx="105.8" cy="748.4" r="5.720000000000001" fill="#bcd2ff" opacity="0.12419999999999999"/>
    <circle cx="105.8" cy="748.4" r="2.2" fill="#e8f0ff" opacity="0.69"/>
    <circle cx="691.1" cy="43.3" r="0.8" fill="#ffffff" opacity="0.27"/>
    <circle cx="582.6" cy="640.5" r="0.8" fill="#ffffff" opacity="0.34"/>
    <circle cx="222.8" cy="199.8" r="0.8" fill="#ffffff" opacity="0.41"/>
    <circle cx="689.1" cy="440.3" r="0.6" fill="#ffffff" opacity="0.48"/>
    <circle cx="432.5" cy="11.8" r="0.8" fill="#ffffff" opacity="0.57"/>
    <circle cx="679.0" cy="133.0" r="2.2" fill="#e8f0ff" opacity="0.77"/>
    <circle cx="691.7" cy="722.0" r="1.0" fill="#ffffff" opacity="0.38"/>
    <circle cx="788.2" cy="212.2" r="2.2" fill="#e8f0ff" opacity="0.7"/>
    <circle cx="557.3" cy="584.4" r="2.2" fill="#e8f0ff" opacity="0.65"/>
    <circle cx="237.4" cy="775.0" r="0.6" fill="#ffffff" opacity="0.51"/>
    <circle cx="45.7" cy="467.3" r="1.0" fill="#ffffff" opacity="0.27"/>
    <circle cx="406.3" cy="681.1" r="0.8" fill="#ffffff" opacity="0.46"/>
    <circle cx="540.2" cy="188.2" r="0.8" fill="#ffffff" opacity="0.58"/>
    <circle cx="65.6" cy="525.9" r="1.4" fill="#ffffff" opacity="0.93"/>
    <circle cx="163.4" cy="573.0" r="1.0" fill="#ffffff" opacity="0.34"/>
    <circle cx="104.7" cy="516.4" r="2.2" fill="#e8f0ff" opacity="0.71"/>
    <circle cx="601.5" cy="58.0" r="5.720000000000001" fill="#bcd2ff" opacity="0.14759999999999998"/>
    <circle cx="601.5" cy="58.0" r="2.2" fill="#e8f0ff" opacity="0.82"/>
    <circle cx="450.4" cy="80.0" r="1.0" fill="#ffffff" opacity="0.43"/>
    <circle cx="106.0" cy="279.2" r="0.8" fill="#ffffff" opacity="0.56"/>
    <circle cx="295.6" cy="126.2" r="1.2" fill="#ffffff" opacity="0.46"/>
    <circle cx="789.8" cy="523.2" r="0.6" fill="#ffffff" opacity="0.48"/>
    <circle cx="443.7" cy="745.4" r="0.8" fill="#ffffff" opacity="0.58"/>
    <circle cx="107.4" cy="92.3" r="0.8" fill="#ffffff" opacity="0.51"/>
    <circle cx="124.4" cy="225.4" r="1.0" fill="#ffffff" opacity="0.5"/>
    <circle cx="390.8" cy="724.3" r="0.6" fill="#ffffff" opacity="0.28"/>
    <circle cx="616.9" cy="509.7" r="1.2" fill="#ffffff" opacity="0.31"/>
    <circle cx="353.5" cy="564.5" r="0.6" fill="#ffffff" opacity="0.29"/>
    <circle cx="756.0" cy="552.8" r="1.0" fill="#ffffff" opacity="0.44"/>
    <circle cx="667.7" cy="466.0" r="1.0" fill="#ffffff" opacity="0.4"/>
    <circle cx="33.5" cy="291.7" r="0.6" fill="#ffffff" opacity="0.56"/>
    <circle cx="168.1" cy="199.6" r="0.8" fill="#ffffff" opacity="0.37"/>
    <circle cx="447.9" cy="699.8" r="1.0" fill="#ffffff" opacity="0.57"/>
    <circle cx="189.4" cy="130.0" r="1.0" fill="#ffffff" opacity="0.56"/>
    <circle cx="19.8" cy="589.3" r="1.4" fill="#ffffff" opacity="0.87"/>
    <circle cx="329.4" cy="535.9" r="1.0" fill="#ffffff" opacity="0.34"/>
    <circle cx="629.9" cy="86.5" r="0.6" fill="#ffffff" opacity="0.55"/>
    <circle cx="177.9" cy="653.3" r="2.2" fill="#e8f0ff" opacity="0.72"/>
    <circle cx="656.4" cy="697.1" r="1.0" fill="#ffffff" opacity="0.26"/>
    <circle cx="154.5" cy="262.6" r="1.2" fill="#ffffff" opacity="0.37"/>
    <circle cx="407.5" cy="543.6" r="1.4" fill="#ffffff" opacity="0.93"/>
    <circle cx="92.3" cy="776.3" r="1.0" fill="#ffffff" opacity="0.45"/>
    <circle cx="786.8" cy="30.6" r="1.8" fill="#e8f0ff" opacity="0.72"/>
    <circle cx="629.1" cy="349.1" r="0.8" fill="#ffffff" opacity="0.38"/>
    <circle cx="461.3" cy="203.8" r="1.8" fill="#e8f0ff" opacity="0.6"/>
    <circle cx="740.5" cy="430.8" r="1.0" fill="#ffffff" opacity="0.38"/>
    <circle cx="56.0" cy="531.4" r="1.4" fill="#ffffff" opacity="0.82"/>
    <circle cx="530.7" cy="99.7" r="1.2" fill="#ffffff" opacity="0.43"/>
    <circle cx="443.5" cy="153.5" r="1.8" fill="#e8f0ff" opacity="0.84"/>
    <circle cx="722.2" cy="492.4" r="1.2" fill="#ffffff" opacity="0.39"/>
    <circle cx="667.0" cy="243.1" r="1.0" fill="#ffffff" opacity="0.4"/>
    <circle cx="464.0" cy="523.8" r="5.720000000000001" fill="#bcd2ff" opacity="0.135"/>
    <circle cx="464.0" cy="523.8" r="2.2" fill="#e8f0ff" opacity="0.75"/>
    <circle cx="767.9" cy="588.8" r="0.8" fill="#ffffff" opacity="0.35"/>
    <circle cx="761.6" cy="187.9" r="1.2" fill="#ffffff" opacity="0.33"/>
    <circle cx="159.3" cy="19.5" r="1.0" fill="#ffffff" opacity="0.59"/>
    <circle cx="489.0" cy="614.8" r="2.2" fill="#e8f0ff" opacity="0.75"/>
    <circle cx="503.8" cy="155.5" r="1.8" fill="#e8f0ff" opacity="0.77"/>
    <circle cx="195.2" cy="524.8" r="0.6" fill="#ffffff" opacity="0.56"/>
    <circle cx="688.4" cy="708.4" r="1.8" fill="#e8f0ff" opacity="0.68"/>
    <circle cx="643.3" cy="556.7" r="2.2" fill="#e8f0ff" opacity="0.62"/>
    <circle cx="199.4" cy="678.7" r="2.2" fill="#e8f0ff" opacity="0.65"/>
    <circle cx="253.8" cy="604.2" r="2.2" fill="#e8f0ff" opacity="0.81"/>
    <circle cx="438.3" cy="717.8" r="2.2" fill="#e8f0ff" opacity="0.76"/>
    <circle cx="601.4" cy="671.9" r="1.2" fill="#ffffff" opacity="0.52"/>
    <circle cx="62.0" cy="228.6" r="1.2" fill="#ffffff" opacity="0.37"/>
    <circle cx="714.4" cy="64.5" r="1.0" fill="#ffffff" opacity="0.33"/>
    <circle cx="555.2" cy="565.1" r="0.8" fill="#ffffff" opacity="0.4"/>
    <circle cx="666.3" cy="311.6" r="0.6" fill="#ffffff" opacity="0.55"/>
    <circle cx="281.4" cy="602.8" r="4.680000000000001" fill="#bcd2ff" opacity="0.1422"/>
    <circle cx="281.4" cy="602.8" r="1.8" fill="#e8f0ff" opacity="0.79"/>
    <circle cx="587.7" cy="639.9" r="1.0" fill="#ffffff" opacity="0.42"/>
    <circle cx="535.1" cy="638.5" r="1.0" fill="#ffffff" opacity="0.54"/>
    <circle cx="735.6" cy="784.6" r="0.6" fill="#ffffff" opacity="0.57"/>
    <circle cx="473.5" cy="530.4" r="0.8" fill="#ffffff" opacity="0.47"/>
    <circle cx="108.6" cy="369.4" r="0.6" fill="#ffffff" opacity="0.34"/>
    <circle cx="703.7" cy="222.6" r="1.8" fill="#e8f0ff" opacity="0.69"/>
    <circle cx="65.5" cy="15.5" r="0.6" fill="#ffffff" opacity="0.6"/>
    <circle cx="280.0" cy="520.1" r="0.6" fill="#ffffff" opacity="0.51"/>
    <circle cx="759.7" cy="159.5" r="0.6" fill="#ffffff" opacity="0.47"/>
    <circle cx="758.2" cy="372.0" r="1.2" fill="#ffffff" opacity="0.52"/>
    <circle cx="134.2" cy="485.8" r="0.8" fill="#ffffff" opacity="0.52"/>
    <circle cx="131.0" cy="248.8" r="0.6" fill="#ffffff" opacity="0.58"/>
    <circle cx="460.6" cy="726.4" r="1.8" fill="#e8f0ff" opacity="0.74"/>
    <circle cx="572.0" cy="60.8" r="1.0" fill="#ffffff" opacity="0.29"/>
    <circle cx="618.0" cy="680.2" r="0.8" fill="#ffffff" opacity="0.53"/>
    <circle cx="452.7" cy="32.9" r="1.8" fill="#e8f0ff" opacity="0.83"/>
    <circle cx="55.2" cy="518.0" r="0.6" fill="#ffffff" opacity="0.55"/>
    <circle cx="657.9" cy="84.4" r="1.4" fill="#ffffff" opacity="0.82"/>
    <circle cx="663.0" cy="565.8" r="1.8" fill="#e8f0ff" opacity="0.66"/>
    <circle cx="417.4" cy="520.4" r="2.2" fill="#e8f0ff" opacity="0.76"/>
    <circle cx="660.6" cy="474.0" r="1.4" fill="#ffffff" opacity="0.9"/>
    <circle cx="664.6" cy="69.3" r="2.2" fill="#e8f0ff" opacity="0.69"/>
    <circle cx="23.0" cy="680.8" r="1.0" fill="#ffffff" opacity="0.42"/>
    <circle cx="283.9" cy="206.7" r="1.2" fill="#ffffff" opacity="0.56"/>
    <circle cx="758.5" cy="68.5" r="1.8" fill="#e8f0ff" opacity="0.77"/>
    <circle cx="606.5" cy="552.5" r="2.2" fill="#e8f0ff" opacity="0.76"/>
    <circle cx="13.8" cy="235.4" r="1.8" fill="#e8f0ff" opacity="0.84"/>
    <circle cx="264.6" cy="562.3" r="1.2" fill="#ffffff" opacity="0.36"/>
    <circle cx="184.4" cy="577.0" r="1.4" fill="#ffffff" opacity="0.64"/>
    <circle cx="428.7" cy="609.8" r="1.0" fill="#ffffff" opacity="0.32"/>
    <circle cx="608.2" cy="477.4" r="1.0" fill="#ffffff" opacity="0.35"/>
    <circle cx="101.3" cy="36.4" r="0.6" fill="#ffffff" opacity="0.44"/>
    <circle cx="557.9" cy="101.0" r="2.2" fill="#e8f0ff" opacity="0.64"/>
    <circle cx="9.8" cy="227.5" r="5.720000000000001" fill="#bcd2ff" opacity="0.135"/>
    <circle cx="9.8" cy="227.5" r="2.2" fill="#e8f0ff" opacity="0.75"/>
    <circle cx="147.5" cy="41.1" r="2.2" fill="#e8f0ff" opacity="0.64"/>
    <circle cx="52.3" cy="393.4" r="0.6" fill="#ffffff" opacity="0.3"/>
    <circle cx="648.9" cy="759.3" r="0.8" fill="#ffffff" opacity="0.6"/>
    <circle cx="94.8" cy="611.6" r="1.0" fill="#ffffff" opacity="0.52"/>
    <circle cx="304.3" cy="726.8" r="1.2" fill="#ffffff" opacity="0.55"/>
    <circle cx="792.0" cy="244.3" r="0.6" fill="#ffffff" opacity="0.46"/>
    <circle cx="592.1" cy="758.1" r="1.0" fill="#ffffff" opacity="0.47"/>
    <circle cx="211.7" cy="64.9" r="1.0" fill="#ffffff" opacity="0.31"/>
    <circle cx="60.1" cy="2.1" r="2.2" fill="#e8f0ff" opacity="0.84"/>
    <circle cx="375.9" cy="26.1" r="1.2" fill="#ffffff" opacity="0.5"/>
    <circle cx="739.1" cy="630.3" r="1.0" fill="#ffffff" opacity="0.4"/>
    <circle cx="435.6" cy="518.1" r="1.2" fill="#ffffff" opacity="0.54"/>
    <circle cx="57.1" cy="132.7" r="1.2" fill="#ffffff" opacity="0.46"/>
    <circle cx="659.4" cy="737.0" r="2.2" fill="#e8f0ff" opacity="0.64"/>
    <circle cx="550.9" cy="559.8" r="1.2" fill="#ffffff" opacity="0.43"/>
    <circle cx="395.0" cy="64.4" r="0.6" fill="#ffffff" opacity="0.56"/>
    <circle cx="183.1" cy="539.4" r="0.6" fill="#ffffff" opacity="0.6"/>
    <circle cx="732.9" cy="145.2" r="1.8" fill="#e8f0ff" opacity="0.82"/>
    <circle cx="393.4" cy="73.0" r="1.4" fill="#ffffff" opacity="0.74"/>
    <circle cx="256.8" cy="83.7" r="1.0" fill="#ffffff" opacity="0.37"/>
    <circle cx="554.9" cy="230.6" r="0.6" fill="#ffffff" opacity="0.41"/>
    <circle cx="251.6" cy="258.6" r="1.8" fill="#e8f0ff" opacity="0.9"/>
    <circle cx="659.9" cy="0.9" r="2.2" fill="#e8f0ff" opacity="0.74"/>
    <circle cx="500.3" cy="608.0" r="1.0" fill="#ffffff" opacity="0.34"/>
    <circle cx="104.8" cy="230.4" r="2.2" fill="#e8f0ff" opacity="0.64"/>
    <circle cx="778.5" cy="487.1" r="1.0" fill="#ffffff" opacity="0.5"/>
    <circle cx="248.6" cy="10.9" r="1.8" fill="#e8f0ff" opacity="0.63"/>
    <circle cx="793.8" cy="730.3" r="2.2" fill="#e8f0ff" opacity="0.93"/>
    <circle cx="518.2" cy="123.2" r="1.2" fill="#ffffff" opacity="0.43"/>
    <circle cx="218.7" cy="667.8" r="2.2" fill="#e8f0ff" opacity="0.69"/>
    <circle cx="441.0" cy="306.9" r="1.0" fill="#ffffff" opacity="0.55"/>
    <circle cx="221.0" cy="632.0" r="1.8" fill="#e8f0ff" opacity="0.72"/>
    <circle cx="580.8" cy="670.0" r="2.2" fill="#e8f0ff" opacity="0.9"/>
 </g>

 <g transform="translate(160.0 228) scale(1.0843781768891902)">
   <path class="fil0" d="M169.02 116.35c-7.46,0 -13.01,-4.74 -15.18,-11.79l50.02 0c0,-26.71 -13.01,-42.97 -35.25,-42.97 -21.15,0 -36.6,15.18 -36.6,36.47 0,21.56 16,36.87 37.69,36.87 10.44,0 22.5,-4.47 28.74,-10.85l-13.56 -13.69c-4.2,3.66 -10.44,5.96 -15.86,5.96zm0 -36.33c6.91,0 11.66,4.2 13.56,10.57l-28.47 0c2.44,-6.51 8,-10.57 14.91,-10.57zm90.09 -18.44c-9.35,0 -17.35,3.93 -22.91,10.57l0 -33.62 -23.05 0 0 94.76 23.05 0 0 -8.95c5.56,6.64 13.56,10.57 22.91,10.57 18.84,0 32.13,-15.18 32.13,-36.74 0,-21.42 -13.29,-36.6 -32.13,-36.6zm-6.91 54.23c-9.49,0 -16,-7.32 -16,-17.62 0,-10.17 6.51,-17.49 16,-17.49 9.9,0 16.95,7.32 16.95,17.49 0,10.3 -7.05,17.62 -16.95,17.62z"/>
   <path class="fil0" d="M130.84 146.78l0 8.54c-4.61,-5.96 -13.56,-10.17 -22.37,-10.17 -17.35,0 -30.77,13.69 -30.77,33.21 0,19.52 13.42,33.35 30.77,33.35 8.68,0 16.81,-3.66 22.37,-10.03l0 6.64c0,7.46 -7.73,12.74 -19.25,12.74 -8,0 -16.13,-2.58 -20.47,-6.24l-7.73 16c7.18,5.42 19.11,9.35 31.72,9.35 22.77,0 38.77,-12.74 38.77,-30.77l0 -62.63 -23.05 0zm-14.78 45.82c-8.54,0 -14.78,-5.96 -14.78,-14.23 0,-8.27 6.24,-14.1 14.78,-14.1 8.68,0 14.78,5.83 14.78,14.1 0,8.27 -6.1,14.23 -14.78,14.23zm73.68 -32.81l0 -13.01 -22.91 0 0 70.09 22.91 0 0 -31.86 0.14 0.27c0,-12.88 8.68,-21.01 22.91,-21.01l0 -19.12c-10.17,0 -18.44,5.56 -23.05,14.64zm63.24 -14.64c-10.85,0 -20.88,3.12 -30.64,8l7.19 14.37c5.96,-3.12 10.98,-5.15 17.62,-5.15 9.63,0 15.32,5.42 15.32,12.88l0 0.95c-5.42,-2.17 -11.25,-3.39 -16.4,-3.39 -16.54,0 -29.69,9.63 -29.69,23.32 0,13.29 11.79,22.37 26.71,22.37 7.19,0 14.51,-2.71 19.39,-7.59l0 5.96 22.1 0 0 -41.62c0,-18.71 -13.56,-30.1 -31.59,-30.1zm-4.34 59.24c-6.1,0 -10.44,-3.52 -10.44,-8.95 0,-5.42 4.88,-9.35 11.12,-9.35 4.74,0 9.63,0.95 13.15,2.3l0 7.46c-0.95,5.29 -7.05,8.54 -13.83,8.54zm91.58 -59.24c-8.81,0 -16.13,3.66 -20.47,9.49l0 -32.54 -23.05 0 0 94.76 23.05 0 0 -40.4c0,-6.91 5.29,-12.2 12.34,-12.2 7.05,0 11.93,5.42 11.93,13.15l0 39.45 21.96 0 0 -44.6c0,-15.86 -10.71,-27.11 -25.76,-27.11zm70.83 0c-10.85,0 -20.88,3.12 -30.64,8l7.19 14.37c5.96,-3.12 10.98,-5.15 17.62,-5.15 9.63,0 15.32,5.42 15.32,12.88l0 0.95c-5.42,-2.17 -11.25,-3.39 -16.4,-3.39 -16.54,0 -29.69,9.63 -29.69,23.32 0,13.29 11.79,22.37 26.71,22.37 7.19,0 14.51,-2.71 19.39,-7.59l0 5.96 22.1 0 0 -41.62c0,-18.71 -13.56,-30.1 -31.59,-30.1zm-4.34 59.24c-6.1,0 -10.44,-3.52 -10.44,-8.95 0,-5.42 4.88,-9.35 11.12,-9.35 4.74,0 9.63,0.95 13.15,2.3l0 7.46c-0.95,5.29 -7.05,8.54 -13.83,8.54z"/>
   <path class="fil1" d="M99.29 89.64c-0.55,2.11 -1.33,4.58 -4.76,4.09 -2.37,-0.34 -3.29,-2.72 -4.48,-4.49 -1.18,-1.76 -2.23,-3.49 -3.42,-5.34 -1.21,-1.89 -2.33,-3.59 -3.51,-5.47 -3.29,-5.22 -7.04,-11.5 -16.22,-10.54 -5.68,0.59 -8.51,4.35 -11.09,6.9l-17.87 17.81c-3.31,2.87 -8.54,2.57 -9.94,-4.57 -1.95,-9.95 -3.89,-19.86 -5.86,-29.82 -1.76,-8.92 -0.75,-8.43 -9.5,-8.43 -2.98,0 -6.01,-0.05 -8.98,-0.01 -3.17,0.04 -4.01,1.93 -3.53,5.13 3.08,20.78 5.92,41.8 8.82,62.67 0.91,6.56 1.49,9.12 5.31,12.64 3.03,2.79 7.65,4.92 13.3,4.29 5.87,-0.65 8.69,-3.81 11.33,-6.56 2.77,-2.89 5.94,-6.1 8.71,-9.02l8.82 -9.13c0.75,-0.8 1.54,-1.4 2.28,-2.2l4.36 -4.62c0.66,-0.7 1.33,-1.27 2.17,-2.1 1.54,-1.52 3.86,-3.41 5.97,-1.31l17.69 26.97c9.51,14.67 28.85,8.46 30.98,-5.86 0.74,-4.99 0.84,-11.52 1.2,-16.69 0.39,-5.62 0.77,-11.18 1.15,-16.8 0.2,-3.02 0.72,-5.3 -1.09,-7.41 -1.72,-2.01 -3.66,-1.95 -6.99,-1.94 -6.23,0 -11.31,-1.3 -12.97,4.72 -0.66,2.39 -1.25,4.72 -1.87,7.1z"/>
   <path class="fil1" d="M179.93 5.4c79.18,-20.95 154.2,21.74 183.46,81.36 5.71,11.64 9.69,23.53 12.12,35.36 -2.38,-7.78 -5.43,-15.53 -9.21,-23.17 -31.08,-62.82 -112.27,-107.17 -200.67,-82.54 -15.92,4.44 -31.06,10.85 -45.13,19.08 17.19,-13.98 37.31,-24.22 59.43,-30.08z"/>
 </g>

 <text x="400.0" y="562" text-anchor="middle" class="tagline"
   font-size="27" letter-spacing="1">Your gateway to the digital universe</text>
</svg>
