<svg width="360" height="80" viewBox="0 0 360 80" xmlns="http://www.w3.org/2000/svg" role="img" aria-label="WebGraha">
  <defs>
    <radialGradient id="wg-sphere-full" cx="34%" cy="28%" r="82%">
      <stop offset="0%" stop-color="#9cc4ed"/>
      <stop offset="20%" stop-color="#5b95d1"/>
      <stop offset="50%" stop-color="#234a82"/>
      <stop offset="78%" stop-color="#10254a"/>
      <stop offset="100%" stop-color="#070f24"/>
    </radialGradient>
    <radialGradient id="wg-moon-full" cx="36%" cy="30%" r="72%">
      <stop offset="0%" stop-color="#fffdf6"/>
      <stop offset="55%" stop-color="#f0ead4"/>
      <stop offset="100%" stop-color="#c7bd9e"/>
    </radialGradient>
    <linearGradient id="wg-ring-full" x1="0%" y1="0%" x2="100%" y2="100%">
      <stop offset="0%" stop-color="#d7ecf7" stop-opacity="0.1"/>
      <stop offset="50%" stop-color="#d7ecf7" stop-opacity="0.55"/>
      <stop offset="100%" stop-color="#d7ecf7" stop-opacity="0.1"/>
    </linearGradient>
    <clipPath id="wg-sphere-full-clip">
      <circle cx="32" cy="32" r="15"/>
    </clipPath>
    <filter id="wg-soft-full" x="-50%" y="-50%" width="200%" height="200%">
      <feGaussianBlur stdDeviation="1.1"/>
    </filter>
  </defs>

  <g transform="translate(6,8)">
    <ellipse cx="32" cy="32" rx="27" ry="10.5" transform="rotate(-22 32 32)"
             fill="none" stroke="url(#wg-ring-full)" stroke-width="1.5"/>

    <circle cx="32" cy="32" r="15" fill="url(#wg-sphere-full)" stroke="rgba(255,255,255,0.24)" stroke-width="0.6"/>

    <g clip-path="url(#wg-sphere-full-clip)">
      <path d="M18.5 22.5c2.6-4.3 7.8-6 11.4-4.2 2.6 1.3 4.6 3.6 4.4 6.3-.15 2-1.6 3.2-1 5.1.5 1.6 2.4 2.2 2.1 4-.3 1.8-2.6 2.6-4.5 2.9-3.4.6-7.4-.1-9.8-2.6-2-2.1-2.2-5-2.1-7.5.05-1.4-1.1-2.7-.5-4z" fill="#3d6650"/>
      <path d="M21 23.5c1.8-2.4 4.6-3.6 6.8-2.7 1.6.65 1.7 2.2.6 3.3-1.5 1.5-3.9 1.2-5.6 2.3-1.1.7-2.6.3-1.8-1.1.3-.5.6-1.1 0-1.8z" fill="#5f4b36" opacity="0.85"/>
      <path d="M28.5 36c3.4-2.1 8-1.6 10.6 1 2 2 1.6 5-.8 6.6-2.8 1.9-7 1.7-9.7-.4-2-1.6-2.7-4.4-1.5-6.4z" fill="#5f4b36"/>
      <path d="M30 37.6c1.6-1 3.8-.9 5 .3 1 1 .6 2.4-.7 3-1.6.75-3.6.3-4.8-.7-.7-.6-.4-2 .5-2.6z" fill="#3d6650" opacity="0.9"/>
      <ellipse cx="40.8" cy="21.2" rx="3.1" ry="2" fill="#3d6650"/>
      <ellipse cx="23" cy="41.8" rx="1.7" ry="1.1" fill="#5f4b36" opacity="0.9"/>
      <ellipse cx="43" cy="33" rx="1.3" ry="0.9" fill="#3d6650" opacity="0.85"/>
      <ellipse cx="32" cy="18" rx="9.5" ry="3.4" fill="#f4f8fb" opacity="0.55"/>
      <ellipse cx="32" cy="18" rx="6.5" ry="2.1" fill="#ffffff" opacity="0.4"/>
      <ellipse cx="32" cy="46" rx="9.5" ry="3.4" fill="#f4f8fb" opacity="0.45"/>
      <ellipse cx="32" cy="46" rx="6.5" ry="2.1" fill="#ffffff" opacity="0.3"/>
      <ellipse cx="26" cy="28" rx="5.5" ry="1.4" fill="#ffffff" opacity="0.16" transform="rotate(-12 26 28)"/>
      <ellipse cx="37" cy="38" rx="6" ry="1.5" fill="#ffffff" opacity="0.14" transform="rotate(10 37 38)"/>
      <ellipse cx="22" cy="36" rx="3.6" ry="1" fill="#ffffff" opacity="0.12" transform="rotate(-6 22 36)"/>
    </g>

    <ellipse cx="27" cy="26" rx="4.5" ry="2.6" fill="#ffffff" opacity="0.22" filter="url(#wg-soft-full)"/>

    <circle cx="32" cy="32" r="15" fill="none" stroke="#bcd6ea" stroke-opacity="0.4" stroke-width="1"/>
    <circle cx="32" cy="32" r="15.9" fill="none" stroke="#bcd6ea" stroke-opacity="0.15" stroke-width="0.8"/>

    <circle cx="7.7" cy="37" r="4" fill="#fdfaf0" opacity="0.14" filter="url(#wg-soft-full)"/>
    <circle cx="7.7" cy="37" r="1.95" fill="url(#wg-moon-full)"/>
    <circle cx="7.05" cy="36.35" r="0.46" fill="#9c916f" opacity="0.5"/>
    <circle cx="8.35" cy="37.75" r="0.32" fill="#9c916f" opacity="0.45"/>
    <circle cx="7.5" cy="37.8" r="0.22" fill="#9c916f" opacity="0.4"/>
    <ellipse cx="7" cy="36.2" rx="0.7" ry="0.45" fill="#ffffff" opacity="0.5"/>
  </g>

  <text x="86" y="50" font-family="Georgia, 'Times New Roman', serif" font-weight="700" font-size="36" letter-spacing="0.3" fill="#f3f6fa">WebGraha</text>
</svg>
