<?xml version="1.0" encoding="UTF-8"?>
<svg xmlns="http://www.w3.org/2000/svg" xml:space="preserve" width="1600" height="800"
 viewBox="0 0 1600 800" xmlns:xlink="http://www.w3.org/1999/xlink">
 <defs>
  <radialGradient id="spaceBg" cx="50%" cy="32%" r="80%">
   <stop offset="0%" stop-color="#181c3a"/>
   <stop offset="45%" stop-color="#0b0e22"/>
   <stop offset="100%" stop-color="#020208"/>
  </radialGradient>
  <radialGradient id="nebulaPurple" cx="24%" cy="18%" r="42%">
   <stop offset="0%" stop-color="#5a3d99" stop-opacity="0.32"/>
   <stop offset="100%" stop-color="#5a3d99" stop-opacity="0"/>
  </radialGradient>
  <radialGradient id="nebulaBlue" cx="78%" cy="72%" r="46%">
   <stop offset="0%" stop-color="#1c5a86" stop-opacity="0.28"/>
   <stop offset="100%" stop-color="#1c5a86" stop-opacity="0"/>
  </radialGradient>
  <style type="text/css">
   <![CDATA[
    @font-face {
      font-family: 'Metropolis';
      src: url('font/metropolis-extra-bold.ttf') format('truetype');
      font-weight: 800;
      font-style: normal;
    }
    .fil1 {fill:white}
    .fil0 {fill:white;fill-rule:nonzero}
    .tagline {
      font-family: 'Metropolis', 'Poppins', 'Montserrat', Arial, sans-serif;
      font-weight: 800;
      fill: #dfe6ff;
    }
   ]]>
  </style>
 </defs>

 <rect width="1600" height="800" fill="url(#spaceBg)"/>
 <rect width="1600" height="800" fill="url(#nebulaPurple)"/>
 <rect width="1600" height="800" fill="url(#nebulaBlue)"/>

 <g>
    <circle cx="518.1" cy="120.7" r="0.6" fill="#ffffff" opacity="0.28"/>
    <circle cx="811.9" cy="30.0" r="1.8" fill="#e8f0ff" opacity="0.75"/>
    <circle cx="385.1" cy="440.8" r="0.6" fill="#ffffff" opacity="0.54"/>
    <circle cx="198.1" cy="178.6" r="0.6" fill="#ffffff" opacity="0.45"/>
    <circle cx="634.7" cy="781.0" r="0.6" fill="#ffffff" opacity="0.44"/>
    <circle cx="213.1" cy="335.3" r="0.8" fill="#ffffff" opacity="0.45"/>
    <circle cx="745.0" cy="738.8" r="1.4" fill="#ffffff" opacity="0.7"/>
    <circle cx="1271.0" cy="559.2" r="1.0" fill="#ffffff" opacity="0.28"/>
    <circle cx="819.1" cy="132.0" r="1.4" fill="#ffffff" opacity="0.65"/>
    <circle cx="782.3" cy="31.4" r="0.8" fill="#ffffff" opacity="0.52"/>
    <circle cx="916.8" cy="700.4" r="1.4" fill="#ffffff" opacity="0.72"/>
    <circle cx="110.0" cy="74.9" r="1.2" fill="#ffffff" opacity="0.42"/>
    <circle cx="1062.6" cy="48.5" r="1.2" fill="#ffffff" opacity="0.48"/>
    <circle cx="1589.0" cy="657.5" r="1.2" fill="#ffffff" opacity="0.5"/>
    <circle cx="1419.3" cy="277.6" r="2.2" fill="#e8f0ff" opacity="0.72"/>
    <circle cx="459.9" cy="590.7" r="1.8" fill="#e8f0ff" opacity="0.74"/>
    <circle cx="1394.3" cy="64.5" r="2.2" fill="#e8f0ff" opacity="0.74"/>
    <circle cx="444.5" cy="109.5" r="4.680000000000001" fill="#bcd2ff" opacity="0.162"/>
    <circle cx="444.5" cy="109.5" r="1.8" fill="#e8f0ff" opacity="0.9"/>
    <circle cx="1414.7" cy="766.2" r="1.0" fill="#ffffff" opacity="0.28"/>
    <circle cx="242.1" cy="526.8" r="0.6" fill="#ffffff" opacity="0.42"/>
    <circle cx="1525.0" cy="552.4" r="0.6" fill="#ffffff" opacity="0.41"/>
    <circle cx="1393.6" cy="761.5" r="1.8" fill="#e8f0ff" opacity="0.74"/>
    <circle cx="305.0" cy="787.7" r="2.2" fill="#e8f0ff" opacity="0.66"/>
    <circle cx="544.1" cy="42.1" r="0.6" fill="#ffffff" opacity="0.45"/>
    <circle cx="858.6" cy="759.2" r="0.6" fill="#ffffff" opacity="0.27"/>
    <circle cx="332.7" cy="301.0" r="1.2" fill="#ffffff" opacity="0.58"/>
    <circle cx="780.9" cy="782.3" r="2.2" fill="#e8f0ff" opacity="0.77"/>
    <circle cx="137.4" cy="81.8" r="1.4" fill="#ffffff" opacity="0.86"/>
    <circle cx="765.8" cy="553.6" r="0.6" fill="#ffffff" opacity="0.32"/>
    <circle cx="1523.2" cy="289.4" r="0.6" fill="#ffffff" opacity="0.52"/>
    <circle cx="1352.7" cy="414.7" r="1.0" fill="#ffffff" opacity="0.37"/>
    <circle cx="356.5" cy="433.3" r="1.4" fill="#ffffff" opacity="0.82"/>
    <circle cx="981.2" cy="630.7" r="1.0" fill="#ffffff" opacity="0.53"/>
    <circle cx="1309.3" cy="591.9" r="1.0" fill="#ffffff" opacity="0.32"/>
    <circle cx="788.5" cy="584.8" r="0.6" fill="#ffffff" opacity="0.53"/>
    <circle cx="550.8" cy="646.9" r="1.4" fill="#ffffff" opacity="0.93"/>
    <circle cx="314.7" cy="163.5" r="0.6" fill="#ffffff" opacity="0.42"/>
    <circle cx="1044.8" cy="639.7" r="0.8" fill="#ffffff" opacity="0.54"/>
    <circle cx="191.8" cy="310.8" r="1.0" fill="#ffffff" opacity="0.42"/>
    <circle cx="285.6" cy="631.3" r="1.4" fill="#ffffff" opacity="0.63"/>
    <circle cx="1513.9" cy="577.5" r="2.2" fill="#e8f0ff" opacity="0.74"/>
    <circle cx="1514.9" cy="579.8" r="1.0" fill="#ffffff" opacity="0.6"/>
    <circle cx="44.1" cy="472.6" r="2.2" fill="#e8f0ff" opacity="0.88"/>
    <circle cx="233.9" cy="661.2" r="2.2" fill="#e8f0ff" opacity="0.83"/>
    <circle cx="22.8" cy="776.7" r="0.8" fill="#ffffff" opacity="0.43"/>
    <circle cx="1493.8" cy="347.0" r="1.0" fill="#ffffff" opacity="0.54"/>
    <circle cx="337.7" cy="201.5" r="1.2" fill="#ffffff" opacity="0.43"/>
    <circle cx="1221.9" cy="260.8" r="1.8" fill="#e8f0ff" opacity="0.89"/>
    <circle cx="97.4" cy="591.9" r="2.2" fill="#e8f0ff" opacity="0.83"/>
    <circle cx="1304.1" cy="413.4" r="1.0" fill="#ffffff" opacity="0.44"/>
    <circle cx="837.6" cy="15.0" r="2.2" fill="#e8f0ff" opacity="0.87"/>
    <circle cx="973.7" cy="620.8" r="1.0" fill="#ffffff" opacity="0.31"/>
    <circle cx="757.6" cy="580.2" r="0.6" fill="#ffffff" opacity="0.36"/>
    <circle cx="169.8" cy="448.2" r="1.0" fill="#ffffff" opacity="0.32"/>
    <circle cx="67.5" cy="78.2" r="2.2" fill="#e8f0ff" opacity="0.8"/>
    <circle cx="1216.0" cy="730.0" r="2.2" fill="#e8f0ff" opacity="0.71"/>
    <circle cx="1557.4" cy="484.9" r="1.0" fill="#ffffff" opacity="0.49"/>
    <circle cx="1506.4" cy="559.4" r="1.2" fill="#ffffff" opacity="0.57"/>
    <circle cx="1428.4" cy="162.1" r="2.2" fill="#e8f0ff" opacity="0.65"/>
    <circle cx="194.6" cy="353.7" r="0.8" fill="#ffffff" opacity="0.48"/>
    <circle cx="195.8" cy="621.5" r="1.4" fill="#ffffff" opacity="0.65"/>
    <circle cx="1412.5" cy="774.0" r="1.0" fill="#ffffff" opacity="0.51"/>
    <circle cx="150.6" cy="707.9" r="1.0" fill="#ffffff" opacity="0.6"/>
    <circle cx="1331.9" cy="129.2" r="1.8" fill="#e8f0ff" opacity="0.95"/>
    <circle cx="147.5" cy="292.8" r="1.4" fill="#ffffff" opacity="0.79"/>
    <circle cx="704.7" cy="14.5" r="1.4" fill="#ffffff" opacity="0.78"/>
    <circle cx="472.7" cy="768.6" r="0.8" fill="#ffffff" opacity="0.59"/>
    <circle cx="1261.4" cy="777.4" r="0.8" fill="#ffffff" opacity="0.28"/>
    <circle cx="435.1" cy="724.7" r="1.0" fill="#ffffff" opacity="0.34"/>
    <circle cx="207.3" cy="337.8" r="1.2" fill="#ffffff" opacity="0.39"/>
    <circle cx="293.4" cy="716.2" r="1.2" fill="#ffffff" opacity="0.58"/>
    <circle cx="1015.1" cy="641.3" r="0.8" fill="#ffffff" opacity="0.46"/>
    <circle cx="355.9" cy="211.6" r="0.8" fill="#ffffff" opacity="0.41"/>
    <circle cx="542.6" cy="442.5" r="1.2" fill="#ffffff" opacity="0.47"/>
    <circle cx="69.1" cy="567.6" r="0.8" fill="#ffffff" opacity="0.59"/>
    <circle cx="419.0" cy="144.9" r="1.2" fill="#ffffff" opacity="0.47"/>
    <circle cx="1591.2" cy="29.6" r="0.6" fill="#ffffff" opacity="0.51"/>
    <circle cx="1495.4" cy="85.0" r="1.8" fill="#e8f0ff" opacity="0.83"/>
    <circle cx="873.5" cy="711.0" r="1.2" fill="#ffffff" opacity="0.49"/>
    <circle cx="1571.9" cy="274.2" r="1.0" fill="#ffffff" opacity="0.39"/>
    <circle cx="556.1" cy="43.5" r="1.0" fill="#ffffff" opacity="0.25"/>
    <circle cx="1000.7" cy="703.9" r="1.8" fill="#e8f0ff" opacity="0.66"/>
    <circle cx="135.2" cy="673.0" r="1.2" fill="#ffffff" opacity="0.46"/>
    <circle cx="1108.3" cy="36.2" r="1.0" fill="#ffffff" opacity="0.31"/>
    <circle cx="713.3" cy="210.6" r="1.4" fill="#ffffff" opacity="0.69"/>
    <circle cx="1545.1" cy="247.6" r="1.4" fill="#ffffff" opacity="0.66"/>
    <circle cx="536.5" cy="67.1" r="1.2" fill="#ffffff" opacity="0.43"/>
    <circle cx="321.6" cy="403.8" r="0.6" fill="#ffffff" opacity="0.28"/>
    <circle cx="1307.3" cy="115.1" r="0.6" fill="#ffffff" opacity="0.39"/>
    <circle cx="1532.2" cy="682.6" r="1.0" fill="#ffffff" opacity="0.48"/>
    <circle cx="1145.6" cy="703.3" r="1.8" fill="#e8f0ff" opacity="0.87"/>
    <circle cx="989.9" cy="115.8" r="1.8" fill="#e8f0ff" opacity="0.86"/>
    <circle cx="1299.6" cy="111.4" r="0.6" fill="#ffffff" opacity="0.54"/>
    <circle cx="934.5" cy="714.3" r="1.0" fill="#ffffff" opacity="0.28"/>
    <circle cx="67.0" cy="509.7" r="0.8" fill="#ffffff" opacity="0.38"/>
    <circle cx="722.2" cy="40.6" r="0.6" fill="#ffffff" opacity="0.47"/>
    <circle cx="1276.3" cy="598.6" r="0.8" fill="#ffffff" opacity="0.48"/>
    <circle cx="105.7" cy="589.4" r="1.2" fill="#ffffff" opacity="0.53"/>
    <circle cx="1353.8" cy="187.8" r="1.0" fill="#ffffff" opacity="0.33"/>
    <circle cx="122.8" cy="728.4" r="1.2" fill="#ffffff" opacity="0.52"/>
    <circle cx="235.9" cy="203.2" r="1.2" fill="#ffffff" opacity="0.47"/>
    <circle cx="213.5" cy="385.9" r="2.2" fill="#e8f0ff" opacity="0.69"/>
    <circle cx="1075.2" cy="553.7" r="5.720000000000001" fill="#bcd2ff" opacity="0.126"/>
    <circle cx="1075.2" cy="553.7" r="2.2" fill="#e8f0ff" opacity="0.7"/>
    <circle cx="189.6" cy="714.9" r="1.0" fill="#ffffff" opacity="0.36"/>
    <circle cx="137.4" cy="378.4" r="1.2" fill="#ffffff" opacity="0.41"/>
    <circle cx="1311.8" cy="774.5" r="2.2" fill="#e8f0ff" opacity="0.95"/>
    <circle cx="619.0" cy="733.2" r="1.0" fill="#ffffff" opacity="0.28"/>
    <circle cx="144.5" cy="598.0" r="1.2" fill="#ffffff" opacity="0.58"/>
    <circle cx="212.2" cy="656.2" r="1.2" fill="#ffffff" opacity="0.56"/>
    <circle cx="1125.3" cy="185.1" r="2.2" fill="#e8f0ff" opacity="0.74"/>
    <circle cx="254.5" cy="760.0" r="2.2" fill="#e8f0ff" opacity="0.74"/>
    <circle cx="1163.5" cy="332.9" r="1.8" fill="#e8f0ff" opacity="0.71"/>
    <circle cx="1344.4" cy="1.4" r="1.4" fill="#ffffff" opacity="0.89"/>
    <circle cx="192.1" cy="741.1" r="0.6" fill="#ffffff" opacity="0.57"/>
    <circle cx="1598.1" cy="471.3" r="1.4" fill="#ffffff" opacity="0.92"/>
    <circle cx="1209.1" cy="683.4" r="1.2" fill="#ffffff" opacity="0.29"/>
    <circle cx="1335.5" cy="228.5" r="1.0" fill="#ffffff" opacity="0.34"/>
    <circle cx="425.2" cy="408.8" r="1.0" fill="#ffffff" opacity="0.52"/>
    <circle cx="1256.2" cy="342.2" r="0.6" fill="#ffffff" opacity="0.53"/>
    <circle cx="1009.4" cy="730.7" r="1.0" fill="#ffffff" opacity="0.5"/>
    <circle cx="79.2" cy="585.9" r="2.2" fill="#e8f0ff" opacity="0.82"/>
    <circle cx="221.7" cy="695.6" r="2.2" fill="#e8f0ff" opacity="0.62"/>
    <circle cx="1482.8" cy="101.8" r="2.2" fill="#e8f0ff" opacity="0.75"/>
    <circle cx="1029.1" cy="60.1" r="2.2" fill="#e8f0ff" opacity="0.79"/>
    <circle cx="279.5" cy="444.7" r="1.4" fill="#ffffff" opacity="0.68"/>
    <circle cx="413.4" cy="455.7" r="0.6" fill="#ffffff" opacity="0.51"/>
    <circle cx="444.0" cy="774.1" r="1.0" fill="#ffffff" opacity="0.49"/>
    <circle cx="846.8" cy="632.2" r="1.0" fill="#ffffff" opacity="0.28"/>
    <circle cx="1434.9" cy="307.6" r="2.2" fill="#e8f0ff" opacity="0.75"/>
    <circle cx="499.2" cy="651.5" r="0.6" fill="#ffffff" opacity="0.29"/>
    <circle cx="680.3" cy="611.0" r="2.2" fill="#e8f0ff" opacity="0.94"/>
    <circle cx="783.7" cy="58.5" r="2.2" fill="#e8f0ff" opacity="0.94"/>
    <circle cx="397.5" cy="87.2" r="1.0" fill="#ffffff" opacity="0.3"/>
    <circle cx="1555.0" cy="87.1" r="2.2" fill="#e8f0ff" opacity="0.63"/>
    <circle cx="1243.0" cy="1.1" r="1.0" fill="#ffffff" opacity="0.33"/>
    <circle cx="1471.9" cy="516.4" r="1.2" fill="#ffffff" opacity="0.59"/>
    <circle cx="1222.2" cy="79.6" r="1.2" fill="#ffffff" opacity="0.43"/>
    <circle cx="961.7" cy="8.4" r="1.2" fill="#ffffff" opacity="0.6"/>
    <circle cx="387.8" cy="421.0" r="1.0" fill="#ffffff" opacity="0.26"/>
    <circle cx="310.6" cy="707.9" r="1.8" fill="#e8f0ff" opacity="0.63"/>
    <circle cx="364.5" cy="339.5" r="1.4" fill="#ffffff" opacity="0.68"/>
    <circle cx="54.6" cy="270.4" r="1.8" fill="#e8f0ff" opacity="0.73"/>
    <circle cx="634.2" cy="5.4" r="1.2" fill="#ffffff" opacity="0.51"/>
    <circle cx="807.8" cy="164.2" r="1.2" fill="#ffffff" opacity="0.52"/>
    <circle cx="310.3" cy="372.1" r="1.2" fill="#ffffff" opacity="0.52"/>
    <circle cx="471.9" cy="761.5" r="2.2" fill="#e8f0ff" opacity="0.81"/>
    <circle cx="1434.4" cy="388.0" r="0.6" fill="#ffffff" opacity="0.58"/>
    <circle cx="234.2" cy="314.8" r="1.0" fill="#ffffff" opacity="0.26"/>
    <circle cx="294.6" cy="359.7" r="1.4" fill="#ffffff" opacity="0.86"/>
    <circle cx="1596.0" cy="745.3" r="1.4" fill="#ffffff" opacity="0.67"/>
    <circle cx="498.9" cy="580.3" r="1.4" fill="#ffffff" opacity="0.94"/>
    <circle cx="707.9" cy="87.2" r="0.8" fill="#ffffff" opacity="0.35"/>
    <circle cx="562.3" cy="764.4" r="0.8" fill="#ffffff" opacity="0.45"/>
    <circle cx="1214.1" cy="304.1" r="1.2" fill="#ffffff" opacity="0.54"/>
    <circle cx="691.9" cy="39.4" r="2.2" fill="#e8f0ff" opacity="0.67"/>
    <circle cx="1179.7" cy="379.6" r="1.8" fill="#e8f0ff" opacity="0.69"/>
    <circle cx="742.5" cy="642.7" r="0.6" fill="#ffffff" opacity="0.34"/>
    <circle cx="1195.7" cy="718.8" r="1.4" fill="#ffffff" opacity="0.73"/>
    <circle cx="536.0" cy="763.0" r="0.6" fill="#ffffff" opacity="0.34"/>
    <circle cx="6.0" cy="604.5" r="0.8" fill="#ffffff" opacity="0.26"/>
    <circle cx="374.2" cy="380.2" r="2.2" fill="#e8f0ff" opacity="0.93"/>
    <circle cx="789.6" cy="742.5" r="1.0" fill="#ffffff" opacity="0.25"/>
    <circle cx="1489.7" cy="242.7" r="1.0" fill="#ffffff" opacity="0.46"/>
    <circle cx="1251.6" cy="63.2" r="1.0" fill="#ffffff" opacity="0.39"/>
    <circle cx="255.9" cy="326.2" r="0.6" fill="#ffffff" opacity="0.42"/>
    <circle cx="871.4" cy="128.6" r="1.8" fill="#e8f0ff" opacity="0.91"/>
    <circle cx="1580.5" cy="211.9" r="0.8" fill="#ffffff" opacity="0.32"/>
    <circle cx="673.7" cy="790.7" r="2.2" fill="#e8f0ff" opacity="0.66"/>
    <circle cx="212.7" cy="368.7" r="1.0" fill="#ffffff" opacity="0.51"/>
    <circle cx="1355.2" cy="531.5" r="0.8" fill="#ffffff" opacity="0.52"/>
    <circle cx="406.5" cy="208.3" r="5.720000000000001" fill="#bcd2ff" opacity="0.12419999999999999"/>
    <circle cx="406.5" cy="208.3" r="2.2" fill="#e8f0ff" opacity="0.69"/>
    <circle cx="392.5" cy="122.7" r="1.0" fill="#ffffff" opacity="0.36"/>
    <circle cx="633.7" cy="794.0" r="1.0" fill="#ffffff" opacity="0.48"/>
    <circle cx="160.9" cy="371.1" r="0.6" fill="#ffffff" opacity="0.29"/>
    <circle cx="759.6" cy="655.3" r="2.2" fill="#e8f0ff" opacity="0.92"/>
    <circle cx="64.6" cy="234.9" r="0.8" fill="#ffffff" opacity="0.27"/>
    <circle cx="960.8" cy="662.3" r="1.0" fill="#ffffff" opacity="0.58"/>
    <circle cx="595.6" cy="692.9" r="2.2" fill="#e8f0ff" opacity="0.81"/>
    <circle cx="1240.0" cy="531.8" r="0.6" fill="#ffffff" opacity="0.29"/>
    <circle cx="589.9" cy="113.1" r="1.0" fill="#ffffff" opacity="0.6"/>
    <circle cx="61.2" cy="585.8" r="1.0" fill="#ffffff" opacity="0.54"/>
    <circle cx="1310.1" cy="327.2" r="1.4" fill="#ffffff" opacity="0.66"/>
    <circle cx="876.9" cy="50.6" r="0.8" fill="#ffffff" opacity="0.53"/>
    <circle cx="1062.4" cy="123.6" r="0.8" fill="#ffffff" opacity="0.48"/>
    <circle cx="636.4" cy="216.9" r="1.2" fill="#ffffff" opacity="0.4"/>
    <circle cx="82.2" cy="596.3" r="1.4" fill="#ffffff" opacity="0.74"/>
    <circle cx="29.1" cy="613.3" r="1.4" fill="#ffffff" opacity="0.83"/>
    <circle cx="625.2" cy="324.0" r="4.680000000000001" fill="#bcd2ff" opacity="0.1656"/>
    <circle cx="625.2" cy="324.0" r="1.8" fill="#e8f0ff" opacity="0.92"/>
    <circle cx="678.0" cy="656.3" r="1.8" fill="#e8f0ff" opacity="0.8"/>
    <circle cx="583.6" cy="618.4" r="1.0" fill="#ffffff" opacity="0.26"/>
    <circle cx="882.5" cy="512.5" r="0.8" fill="#ffffff" opacity="0.45"/>
    <circle cx="1483.6" cy="589.8" r="1.0" fill="#ffffff" opacity="0.3"/>
    <circle cx="453.3" cy="416.9" r="0.8" fill="#ffffff" opacity="0.38"/>
    <circle cx="1205.7" cy="633.7" r="1.0" fill="#ffffff" opacity="0.36"/>
    <circle cx="1339.7" cy="34.8" r="2.2" fill="#e8f0ff" opacity="0.71"/>
    <circle cx="1139.7" cy="550.6" r="1.0" fill="#ffffff" opacity="0.47"/>
    <circle cx="1370.5" cy="496.8" r="1.0" fill="#ffffff" opacity="0.54"/>
    <circle cx="292.7" cy="174.5" r="1.8" fill="#e8f0ff" opacity="0.93"/>
    <circle cx="250.4" cy="287.4" r="1.0" fill="#ffffff" opacity="0.34"/>
    <circle cx="1159.8" cy="717.8" r="0.6" fill="#ffffff" opacity="0.56"/>
    <circle cx="1348.0" cy="537.8" r="1.4" fill="#ffffff" opacity="0.64"/>
    <circle cx="701.4" cy="18.7" r="2.2" fill="#e8f0ff" opacity="0.76"/>
    <circle cx="1338.5" cy="648.4" r="1.8" fill="#e8f0ff" opacity="0.64"/>
    <circle cx="205.5" cy="344.5" r="0.8" fill="#ffffff" opacity="0.53"/>
    <circle cx="208.4" cy="737.7" r="1.4" fill="#ffffff" opacity="0.87"/>
    <circle cx="818.4" cy="43.4" r="1.8" fill="#e8f0ff" opacity="0.83"/>
    <circle cx="1254.8" cy="20.7" r="0.8" fill="#ffffff" opacity="0.6"/>
    <circle cx="1171.3" cy="652.0" r="1.0" fill="#ffffff" opacity="0.3"/>
    <circle cx="1417.1" cy="230.3" r="1.0" fill="#ffffff" opacity="0.49"/>
    <circle cx="981.7" cy="724.0" r="2.2" fill="#e8f0ff" opacity="0.65"/>
    <circle cx="803.5" cy="735.9" r="1.0" fill="#ffffff" opacity="0.46"/>
    <circle cx="318.3" cy="322.8" r="1.2" fill="#ffffff" opacity="0.49"/>
    <circle cx="1432.7" cy="135.0" r="1.2" fill="#ffffff" opacity="0.29"/>
    <circle cx="1396.7" cy="444.1" r="0.8" fill="#ffffff" opacity="0.34"/>
    <circle cx="857.1" cy="685.3" r="1.4" fill="#ffffff" opacity="0.69"/>
    <circle cx="1584.8" cy="461.9" r="1.4" fill="#ffffff" opacity="0.72"/>
    <circle cx="130.2" cy="184.0" r="0.6" fill="#ffffff" opacity="0.35"/>
    <circle cx="825.8" cy="248.1" r="1.4" fill="#ffffff" opacity="0.86"/>
    <circle cx="1195.4" cy="177.3" r="1.2" fill="#ffffff" opacity="0.47"/>
    <circle cx="691.6" cy="410.1" r="1.0" fill="#ffffff" opacity="0.42"/>
    <circle cx="980.0" cy="36.5" r="0.6" fill="#ffffff" opacity="0.25"/>
    <circle cx="567.9" cy="85.1" r="1.4" fill="#ffffff" opacity="0.79"/>
    <circle cx="586.0" cy="662.8" r="1.0" fill="#ffffff" opacity="0.3"/>
    <circle cx="1498.5" cy="194.9" r="1.0" fill="#ffffff" opacity="0.41"/>
    <circle cx="101.9" cy="115.8" r="1.2" fill="#ffffff" opacity="0.39"/>
    <circle cx="422.8" cy="9.2" r="1.4" fill="#ffffff" opacity="0.81"/>
    <circle cx="788.6" cy="132.1" r="0.6" fill="#ffffff" opacity="0.27"/>
    <circle cx="93.4" cy="623.1" r="0.6" fill="#ffffff" opacity="0.46"/>
    <circle cx="102.0" cy="500.8" r="2.2" fill="#e8f0ff" opacity="0.85"/>
    <circle cx="10.2" cy="675.5" r="2.2" fill="#e8f0ff" opacity="0.63"/>
    <circle cx="1048.9" cy="140.3" r="0.8" fill="#ffffff" opacity="0.34"/>
    <circle cx="1030.4" cy="98.6" r="1.2" fill="#ffffff" opacity="0.5"/>
    <circle cx="425.6" cy="443.0" r="1.8" fill="#e8f0ff" opacity="0.84"/>
    <circle cx="1467.6" cy="777.5" r="1.2" fill="#ffffff" opacity="0.47"/>
    <circle cx="1544.2" cy="173.6" r="0.6" fill="#ffffff" opacity="0.31"/>
    <circle cx="1447.5" cy="673.4" r="1.0" fill="#ffffff" opacity="0.58"/>
    <circle cx="1193.8" cy="261.5" r="1.8" fill="#e8f0ff" opacity="0.71"/>
    <circle cx="382.7" cy="726.1" r="2.2" fill="#e8f0ff" opacity="0.77"/>
    <circle cx="849.0" cy="5.1" r="0.6" fill="#ffffff" opacity="0.4"/>
    <circle cx="339.1" cy="498.1" r="0.8" fill="#ffffff" opacity="0.45"/>
    <circle cx="274.5" cy="26.3" r="0.8" fill="#ffffff" opacity="0.29"/>
    <circle cx="1486.3" cy="275.9" r="1.0" fill="#ffffff" opacity="0.5"/>
    <circle cx="49.4" cy="110.7" r="0.6" fill="#ffffff" opacity="0.49"/>
    <circle cx="1178.9" cy="52.6" r="1.4" fill="#ffffff" opacity="0.67"/>
    <circle cx="1527.3" cy="427.1" r="0.8" fill="#ffffff" opacity="0.56"/>
    <circle cx="1209.2" cy="569.0" r="1.8" fill="#e8f0ff" opacity="0.64"/>
    <circle cx="329.2" cy="89.6" r="0.6" fill="#ffffff" opacity="0.58"/>
    <circle cx="1457.8" cy="603.0" r="0.8" fill="#ffffff" opacity="0.54"/>
    <circle cx="156.6" cy="605.9" r="1.0" fill="#ffffff" opacity="0.35"/>
    <circle cx="1488.2" cy="38.7" r="1.4" fill="#ffffff" opacity="0.92"/>
    <circle cx="1230.8" cy="481.6" r="2.2" fill="#e8f0ff" opacity="0.9"/>
    <circle cx="989.2" cy="24.8" r="1.8" fill="#e8f0ff" opacity="0.61"/>
    <circle cx="829.8" cy="78.6" r="2.2" fill="#e8f0ff" opacity="0.85"/>
    <circle cx="860.6" cy="173.3" r="0.8" fill="#ffffff" opacity="0.45"/>
    <circle cx="461.3" cy="600.4" r="0.6" fill="#ffffff" opacity="0.25"/>
    <circle cx="295.2" cy="395.7" r="1.4" fill="#ffffff" opacity="0.94"/>
    <circle cx="1304.4" cy="750.6" r="1.0" fill="#ffffff" opacity="0.42"/>
    <circle cx="175.9" cy="509.2" r="0.8" fill="#ffffff" opacity="0.42"/>
    <circle cx="1585.8" cy="449.0" r="0.8" fill="#ffffff" opacity="0.47"/>
    <circle cx="1424.7" cy="68.9" r="0.6" fill="#ffffff" opacity="0.38"/>
 </g>

 <g transform="translate(460.0 161) scale(1.536202417259686)">
   <path class="fil0" d="M169.02 116.35c-7.46,0 -13.01,-4.74 -15.18,-11.79l50.02 0c0,-26.71 -13.01,-42.97 -35.25,-42.97 -21.15,0 -36.6,15.18 -36.6,36.47 0,21.56 16,36.87 37.69,36.87 10.44,0 22.5,-4.47 28.74,-10.85l-13.56 -13.69c-4.2,3.66 -10.44,5.96 -15.86,5.96zm0 -36.33c6.91,0 11.66,4.2 13.56,10.57l-28.47 0c2.44,-6.51 8,-10.57 14.91,-10.57zm90.09 -18.44c-9.35,0 -17.35,3.93 -22.91,10.57l0 -33.62 -23.05 0 0 94.76 23.05 0 0 -8.95c5.56,6.64 13.56,10.57 22.91,10.57 18.84,0 32.13,-15.18 32.13,-36.74 0,-21.42 -13.29,-36.6 -32.13,-36.6zm-6.91 54.23c-9.49,0 -16,-7.32 -16,-17.62 0,-10.17 6.51,-17.49 16,-17.49 9.9,0 16.95,7.32 16.95,17.49 0,10.3 -7.05,17.62 -16.95,17.62z"/>
   <path class="fil0" d="M130.84 146.78l0 8.54c-4.61,-5.96 -13.56,-10.17 -22.37,-10.17 -17.35,0 -30.77,13.69 -30.77,33.21 0,19.52 13.42,33.35 30.77,33.35 8.68,0 16.81,-3.66 22.37,-10.03l0 6.64c0,7.46 -7.73,12.74 -19.25,12.74 -8,0 -16.13,-2.58 -20.47,-6.24l-7.73 16c7.18,5.42 19.11,9.35 31.72,9.35 22.77,0 38.77,-12.74 38.77,-30.77l0 -62.63 -23.05 0zm-14.78 45.82c-8.54,0 -14.78,-5.96 -14.78,-14.23 0,-8.27 6.24,-14.1 14.78,-14.1 8.68,0 14.78,5.83 14.78,14.1 0,8.27 -6.1,14.23 -14.78,14.23zm73.68 -32.81l0 -13.01 -22.91 0 0 70.09 22.91 0 0 -31.86 0.14 0.27c0,-12.88 8.68,-21.01 22.91,-21.01l0 -19.12c-10.17,0 -18.44,5.56 -23.05,14.64zm63.24 -14.64c-10.85,0 -20.88,3.12 -30.64,8l7.19 14.37c5.96,-3.12 10.98,-5.15 17.62,-5.15 9.63,0 15.32,5.42 15.32,12.88l0 0.95c-5.42,-2.17 -11.25,-3.39 -16.4,-3.39 -16.54,0 -29.69,9.63 -29.69,23.32 0,13.29 11.79,22.37 26.71,22.37 7.19,0 14.51,-2.71 19.39,-7.59l0 5.96 22.1 0 0 -41.62c0,-18.71 -13.56,-30.1 -31.59,-30.1zm-4.34 59.24c-6.1,0 -10.44,-3.52 -10.44,-8.95 0,-5.42 4.88,-9.35 11.12,-9.35 4.74,0 9.63,0.95 13.15,2.3l0 7.46c-0.95,5.29 -7.05,8.54 -13.83,8.54zm91.58 -59.24c-8.81,0 -16.13,3.66 -20.47,9.49l0 -32.54 -23.05 0 0 94.76 23.05 0 0 -40.4c0,-6.91 5.29,-12.2 12.34,-12.2 7.05,0 11.93,5.42 11.93,13.15l0 39.45 21.96 0 0 -44.6c0,-15.86 -10.71,-27.11 -25.76,-27.11zm70.83 0c-10.85,0 -20.88,3.12 -30.64,8l7.19 14.37c5.96,-3.12 10.98,-5.15 17.62,-5.15 9.63,0 15.32,5.42 15.32,12.88l0 0.95c-5.42,-2.17 -11.25,-3.39 -16.4,-3.39 -16.54,0 -29.69,9.63 -29.69,23.32 0,13.29 11.79,22.37 26.71,22.37 7.19,0 14.51,-2.71 19.39,-7.59l0 5.96 22.1 0 0 -41.62c0,-18.71 -13.56,-30.1 -31.59,-30.1zm-4.34 59.24c-6.1,0 -10.44,-3.52 -10.44,-8.95 0,-5.42 4.88,-9.35 11.12,-9.35 4.74,0 9.63,0.95 13.15,2.3l0 7.46c-0.95,5.29 -7.05,8.54 -13.83,8.54z"/>
   <path class="fil1" d="M99.29 89.64c-0.55,2.11 -1.33,4.58 -4.76,4.09 -2.37,-0.34 -3.29,-2.72 -4.48,-4.49 -1.18,-1.76 -2.23,-3.49 -3.42,-5.34 -1.21,-1.89 -2.33,-3.59 -3.51,-5.47 -3.29,-5.22 -7.04,-11.5 -16.22,-10.54 -5.68,0.59 -8.51,4.35 -11.09,6.9l-17.87 17.81c-3.31,2.87 -8.54,2.57 -9.94,-4.57 -1.95,-9.95 -3.89,-19.86 -5.86,-29.82 -1.76,-8.92 -0.75,-8.43 -9.5,-8.43 -2.98,0 -6.01,-0.05 -8.98,-0.01 -3.17,0.04 -4.01,1.93 -3.53,5.13 3.08,20.78 5.92,41.8 8.82,62.67 0.91,6.56 1.49,9.12 5.31,12.64 3.03,2.79 7.65,4.92 13.3,4.29 5.87,-0.65 8.69,-3.81 11.33,-6.56 2.77,-2.89 5.94,-6.1 8.71,-9.02l8.82 -9.13c0.75,-0.8 1.54,-1.4 2.28,-2.2l4.36 -4.62c0.66,-0.7 1.33,-1.27 2.17,-2.1 1.54,-1.52 3.86,-3.41 5.97,-1.31l17.69 26.97c9.51,14.67 28.85,8.46 30.98,-5.86 0.74,-4.99 0.84,-11.52 1.2,-16.69 0.39,-5.62 0.77,-11.18 1.15,-16.8 0.2,-3.02 0.72,-5.3 -1.09,-7.41 -1.72,-2.01 -3.66,-1.95 -6.99,-1.94 -6.23,0 -11.31,-1.3 -12.97,4.72 -0.66,2.39 -1.25,4.72 -1.87,7.1z"/>
   <path class="fil1" d="M179.93 5.4c79.18,-20.95 154.2,21.74 183.46,81.36 5.71,11.64 9.69,23.53 12.12,35.36 -2.38,-7.78 -5.43,-15.53 -9.21,-23.17 -31.08,-62.82 -112.27,-107.17 -200.67,-82.54 -15.92,4.44 -31.06,10.85 -45.13,19.08 17.19,-13.98 37.31,-24.22 59.43,-30.08z"/>
 </g>

 <text x="800.0" y="625" text-anchor="middle" class="tagline"
   font-size="36" letter-spacing="1.4">Your gateway to the digital universe</text>
</svg>
