<?xml version="1.0" encoding="UTF-8"?>
<!DOCTYPE svg PUBLIC "-//W3C//DTD SVG 1.1//EN" "http://www.w3.org/Graphics/SVG/1.1/DTD/svg11.dtd">
<!-- Creator: CorelDRAW 2026 -->
<svg xmlns="http://www.w3.org/2000/svg" xml:space="preserve" width="100.715mm" height="54.6486mm" version="1.1" style="shape-rendering:geometricPrecision; text-rendering:geometricPrecision; image-rendering:optimizeQuality; fill-rule:evenodd; clip-rule:evenodd"
viewBox="0 0 442.65 240.18"
 xmlns:xlink="http://www.w3.org/1999/xlink"
 xmlns:xodm="http://www.corel.com/coreldraw/odm/2003">
 <defs>
  <style type="text/css">
   <![CDATA[
    .fil1 {fill:black}
    .fil0 {fill:black;fill-rule:nonzero}
   ]]>
  </style>
 </defs>
 <g id="Layer_x0020_1">
  <metadata id="CorelCorpID_0Corel-Layer"/>
  <g id="_2376855862192">
   <path class="fil0" d="M169.02 116.35c-7.46,0 -13.01,-4.74 -15.18,-11.79l50.02 0c0,-26.71 -13.01,-42.97 -35.25,-42.97 -21.15,0 -36.6,15.18 -36.6,36.47 0,21.56 16,36.87 37.69,36.87 10.44,0 22.5,-4.47 28.74,-10.85l-13.56 -13.69c-4.2,3.66 -10.44,5.96 -15.86,5.96zm0 -36.33c6.91,0 11.66,4.2 13.56,10.57l-28.47 0c2.44,-6.51 8,-10.57 14.91,-10.57zm90.09 -18.44c-9.35,0 -17.35,3.93 -22.91,10.57l0 -33.62 -23.05 0 0 94.76 23.05 0 0 -8.95c5.56,6.64 13.56,10.57 22.91,10.57 18.84,0 32.13,-15.18 32.13,-36.74 0,-21.42 -13.29,-36.6 -32.13,-36.6zm-6.91 54.23c-9.49,0 -16,-7.32 -16,-17.62 0,-10.17 6.51,-17.49 16,-17.49 9.9,0 16.95,7.32 16.95,17.49 0,10.3 -7.05,17.62 -16.95,17.62z"/>
   <path class="fil0" d="M130.84 146.78l0 8.54c-4.61,-5.96 -13.56,-10.17 -22.37,-10.17 -17.35,0 -30.77,13.69 -30.77,33.21 0,19.52 13.42,33.35 30.77,33.35 8.68,0 16.81,-3.66 22.37,-10.03l0 6.64c0,7.46 -7.73,12.74 -19.25,12.74 -8,0 -16.13,-2.58 -20.47,-6.24l-7.73 16c7.18,5.42 19.11,9.35 31.72,9.35 22.77,0 38.77,-12.74 38.77,-30.77l0 -62.63 -23.05 0zm-14.78 45.82c-8.54,0 -14.78,-5.96 -14.78,-14.23 0,-8.27 6.24,-14.1 14.78,-14.1 8.68,0 14.78,5.83 14.78,14.1 0,8.27 -6.1,14.23 -14.78,14.23zm73.68 -32.81l0 -13.01 -22.91 0 0 70.09 22.91 0 0 -31.86 0.14 0.27c0,-12.88 8.68,-21.01 22.91,-21.01l0 -19.12c-10.17,0 -18.44,5.56 -23.05,14.64zm63.24 -14.64c-10.85,0 -20.88,3.12 -30.64,8l7.19 14.37c5.96,-3.12 10.98,-5.15 17.62,-5.15 9.63,0 15.32,5.42 15.32,12.88l0 0.95c-5.42,-2.17 -11.25,-3.39 -16.4,-3.39 -16.54,0 -29.69,9.63 -29.69,23.32 0,13.29 11.79,22.37 26.71,22.37 7.19,0 14.51,-2.71 19.39,-7.59l0 5.96 22.1 0 0 -41.62c0,-18.71 -13.56,-30.1 -31.59,-30.1zm-4.34 59.24c-6.1,0 -10.44,-3.52 -10.44,-8.95 0,-5.42 4.88,-9.35 11.12,-9.35 4.74,0 9.63,0.95 13.15,2.3l0 7.46c-0.95,5.29 -7.05,8.54 -13.83,8.54zm91.58 -59.24c-8.81,0 -16.13,3.66 -20.47,9.49l0 -32.54 -23.05 0 0 94.76 23.05 0 0 -40.4c0,-6.91 5.29,-12.2 12.34,-12.2 7.05,0 11.93,5.42 11.93,13.15l0 39.45 21.96 0 0 -44.6c0,-15.86 -10.71,-27.11 -25.76,-27.11zm70.83 0c-10.85,0 -20.88,3.12 -30.64,8l7.19 14.37c5.96,-3.12 10.98,-5.15 17.62,-5.15 9.63,0 15.32,5.42 15.32,12.88l0 0.95c-5.42,-2.17 -11.25,-3.39 -16.4,-3.39 -16.54,0 -29.69,9.63 -29.69,23.32 0,13.29 11.79,22.37 26.71,22.37 7.19,0 14.51,-2.71 19.39,-7.59l0 5.96 22.1 0 0 -41.62c0,-18.71 -13.56,-30.1 -31.59,-30.1zm-4.34 59.24c-6.1,0 -10.44,-3.52 -10.44,-8.95 0,-5.42 4.88,-9.35 11.12,-9.35 4.74,0 9.63,0.95 13.15,2.3l0 7.46c-0.95,5.29 -7.05,8.54 -13.83,8.54z"/>
   <path class="fil1" d="M99.29 89.64c-0.55,2.11 -1.33,4.58 -4.76,4.09 -2.37,-0.34 -3.29,-2.72 -4.48,-4.49 -1.18,-1.76 -2.23,-3.49 -3.42,-5.34 -1.21,-1.89 -2.33,-3.59 -3.51,-5.47 -3.29,-5.22 -7.04,-11.5 -16.22,-10.54 -5.68,0.59 -8.51,4.35 -11.09,6.9l-17.87 17.81c-3.31,2.87 -8.54,2.57 -9.94,-4.57 -1.95,-9.95 -3.89,-19.86 -5.86,-29.82 -1.76,-8.92 -0.75,-8.43 -9.5,-8.43 -2.98,0 -6.01,-0.05 -8.98,-0.01 -3.17,0.04 -4.01,1.93 -3.53,5.13 3.08,20.78 5.92,41.8 8.82,62.67 0.91,6.56 1.49,9.12 5.31,12.64 3.03,2.79 7.65,4.92 13.3,4.29 5.87,-0.65 8.69,-3.81 11.33,-6.56 2.77,-2.89 5.94,-6.1 8.71,-9.02l8.82 -9.13c0.75,-0.8 1.54,-1.4 2.28,-2.2l4.36 -4.62c0.66,-0.7 1.33,-1.27 2.17,-2.1 1.54,-1.52 3.86,-3.41 5.97,-1.31l17.69 26.97c9.51,14.67 28.85,8.46 30.98,-5.86 0.74,-4.99 0.84,-11.52 1.2,-16.69 0.39,-5.62 0.77,-11.18 1.15,-16.8 0.2,-3.02 0.72,-5.3 -1.09,-7.41 -1.72,-2.01 -3.66,-1.95 -6.99,-1.94 -6.23,0 -11.31,-1.3 -12.97,4.72 -0.66,2.39 -1.25,4.72 -1.87,7.1z"/>
   <path class="fil1" d="M179.93 5.4c79.18,-20.95 154.2,21.74 183.46,81.36 5.71,11.64 9.69,23.53 12.12,35.36 -2.38,-7.78 -5.43,-15.53 -9.21,-23.17 -31.08,-62.82 -112.27,-107.17 -200.67,-82.54 -15.92,4.44 -31.06,10.85 -45.13,19.08 17.19,-13.98 37.31,-24.22 59.43,-30.08z"/>
  </g>
 </g>
</svg>
